<?xml version="1.0" encoding="utf-8"?>
<!-- Generator: Adobe Illustrator 16.0.0, SVG Export Plug-In . SVG Version: 6.00 Build 0)  -->
<!DOCTYPE svg PUBLIC "-//W3C//DTD SVG 1.1//EN" "http://www.w3.org/Graphics/SVG/1.1/DTD/svg11.dtd">
<svg version="1.1" id="Layer_1" xmlns="http://www.w3.org/2000/svg" xmlns:xlink="http://www.w3.org/1999/xlink" x="0px" y="0px"
	 width="39.5px" height="38.75px" viewBox="0 0 39.5 38.75" enable-background="new 0 0 39.5 38.75" xml:space="preserve">
<path fill="#543333" stroke="#FFFFFF" stroke-width="0.25" stroke-miterlimit="10" d="M30.812,3.652C27.911,2.416,23.881,0,19.729,0
	c-2.904,0-5.266,1.699-7.916,2.32C4.866,3.949,2.088,11.279,1.093,18.637c-0.329,2.433,0.475,4.798,1.338,6.944
	c1.088,2.708,3.146,4.669,4.942,7.007c2.679,3.484,7.634,4.275,12.356,4.686c9.619,0.835,11.338-3.429,16.729-10.415
	c1.689-2.188,1.693-5.278,1.908-8.222C38.834,12.237,34.96,5.42,30.812,3.652z M18.01,3.123l4.222,4.17l-2.01,0.979L17.105,4.78
	L18.01,3.123z M17.834,12.414l2.656,0.536l1.093,1.822l-1.458,1.714l-3.333-1.714L17.834,12.414z M7.088,23.32l-2.762-2.739
	l1.678-1.653l2.121,1.983L7.088,23.32z M8.125,10.704l2.443-2.347l2.299,1.677l-0.574,2.587H9.802L8.125,10.704z M12.092,24.409
	l1.471-2.037l3.579-0.783l1.226,3.655l-3.972,0.993L12.092,24.409z M21.361,34.257l-3.752-1.436l0.36-3.068l3.443,1.832l1.851,0.667
	L21.361,34.257z M31.028,29.013l-2.066,0.208l-0.482-2.088l2.272-1.409l1.24,0.939L31.028,29.013z M30.91,22.068l-4.442-1.592
	l1.382-3.364l5.182,1.667L30.91,22.068z M32.143,12.558l-3.663-1.557V8.356l3.441,0.519l1.11,2.126L32.143,12.558z"/>
</svg>
