<?xml version="1.0" encoding="utf-8"?>
<!-- Generator: Adobe Illustrator 16.0.0, SVG Export Plug-In . SVG Version: 6.00 Build 0)  -->
<!DOCTYPE svg PUBLIC "-//W3C//DTD SVG 1.1//EN" "http://www.w3.org/Graphics/SVG/1.1/DTD/svg11.dtd">
<svg version="1.1" id="Ebene_1" xmlns="http://www.w3.org/2000/svg" xmlns:xlink="http://www.w3.org/1999/xlink" x="0px" y="0px"
	 width="60.03px" height="59.75px" viewBox="0 0 60.03 59.75" enable-background="new 0 0 60.03 59.75" xml:space="preserve">
<g>
	<path fill="#FFFFFF" d="M24.079,21.183c0,0-4.833-6.68-15.062-11.074c0,0,11.02-1.758,17.26,9.052c0,0,2.636-12.919,20.916-12.479
		c0,0-14.939,6.767-18.543,13.797c0,0,9.667,3.955,16.873-3.339C52.729,9.846,55.893,7.472,58.44,4.045
		c0,0-10.106-6.416-19.509-3.515c0,0-9.643,2.109-13.358,13.094c0,0-2.784-9.068-14.147-9.139C5.305,4.447,5.555,5.36,0,7.912
		C0,7.912,12.215,26.016,24.079,21.183z"/>
	<g>
		<g>
			<path fill="#FFFFFF" d="M26.216,23.376c-5.873,2.393-15.174,0.494-20.19-2.946c-2.428,3.933-3.829,8.566-3.829,13.527
				c0,14.246,11.548,25.792,25.793,25.792s25.792-11.547,25.792-25.792c0-5.574-1.769-10.735-4.774-14.953
				C40.135,27.511,26.216,23.376,26.216,23.376z"/>
		</g>
		<path fill="#FFFFFF" d="M25.577,21.125"/>
	</g>
</g>
</svg>
