<?xml version="1.0" encoding="utf-8"?>
<!-- Generator: Adobe Illustrator 16.0.0, SVG Export Plug-In . SVG Version: 6.00 Build 0)  -->
<!DOCTYPE svg PUBLIC "-//W3C//DTD SVG 1.1//EN" "http://www.w3.org/Graphics/SVG/1.1/DTD/svg11.dtd">
<svg version="1.1" id="Layer_1" xmlns="http://www.w3.org/2000/svg" xmlns:xlink="http://www.w3.org/1999/xlink" x="0px" y="0px"
	 width="60px" height="57.574px" viewBox="0 0 60 57.574" enable-background="new 0 0 60 57.574" xml:space="preserve">
<path fill="#FFFFFF" d="M60,34.454c0-6.75-5.49-12.241-12.241-12.241c-0.509,0-1.009,0.04-1.502,0.101
	c-1.248-3.857-5.112-10.069-12.666-9.004l-1.508,0.214l-0.04,1.521c-0.069,2.555,1.168,5.391,3.312,7.592
	c1.252,1.288,2.698,2.231,4.183,2.773c-1.522,1.387-2.685,3.156-3.355,5.15H25.271v1.807c0,0.172,0.023,0.344,0.03,0.516
	c-0.371-0.611-0.791-1.185-1.259-1.722l0.07-1.471c1.11-0.557,2.175-1.336,3.127-2.314c2.143-2.203,3.38-5.038,3.312-7.592
	l-0.04-1.521l-1.508-0.216c-1.619-0.226-3.058-0.105-4.349,0.24L25.27,5.376c0.021-0.493-0.156-0.974-0.497-1.333
	c-0.34-0.357-0.813-0.558-1.307-0.558H3.61c-0.494,0-0.966,0.201-1.307,0.558c-0.341,0.359-0.52,0.84-0.497,1.333L3.232,35.32
	c-0.408,1.22-0.637,2.521-0.637,3.873c0,0.756,0.09,1.486,0.222,2.201H0l0.083,3.609c0.7,6.599,5.956,11.854,12.552,12.554
	l34.299,0.017c6.703-0.603,12.068-5.896,12.778-12.57l0.158-3.608h-2.065C59.178,39.417,60,37.036,60,34.454z M34.568,40.289
	l3.339-3.338v4.309C36.715,41.091,35.595,40.753,34.568,40.289z M45.02,40.226c-1.07,0.505-2.25,0.857-3.504,1.033v-4.535
	L45.02,40.226z M44.068,34.173h6.257c-0.362,1.482-1.177,2.83-2.3,3.954L44.068,34.173z M37.941,20.121
	c-0.963-0.99-1.674-2.162-2.029-3.296c3.648,0.329,5.594,3.478,6.479,5.499c-0.012,0.001-0.021,0.001-0.033,0.001
	C40.938,22.324,39.286,21.5,37.941,20.121z M47.759,25.823c4.761,0,8.632,3.871,8.632,8.63c0,2.853-1.408,5.365-3.548,6.939h-3.044
	c2.682-2.295,4.354-5.49,4.354-9.026V30.56H40.111C41.538,27.761,44.411,25.823,47.759,25.823z M35.58,34.173l-4.074,4.077
	c-1.184-1.146-2.03-2.542-2.406-4.077H35.58z M29.626,41.393h-2.772c0.131-0.715,0.223-1.447,0.223-2.201
	c0-0.264-0.026-0.521-0.042-0.782C27.725,39.515,28.604,40.519,29.626,41.393z M7.137,41.393H6.534
	c-0.194-0.706-0.329-1.435-0.329-2.201c0-4.758,3.873-8.631,8.631-8.631s8.63,3.873,8.63,8.631c0,0.767-0.136,1.495-0.329,2.201
	h-3.281H9.026H7.137z M24.652,24.857c-1.343,1.382-2.995,2.207-4.417,2.207c-0.011,0-0.021,0-0.032-0.002
	c0.883-2.021,2.83-5.17,6.481-5.5C26.327,22.699,25.617,23.868,24.652,24.857z M16.337,27.054c-0.494-0.063-0.992-0.103-1.501-0.103
	c-3.173,0-6.058,1.224-8.235,3.209L5.959,16.665c1.188-0.711,3.124-1.517,4.933-0.702c3.991,1.796,7.928,1.946,10.166,1.96
	l-0.108,2.242C18.506,22.108,17.023,24.933,16.337,27.054z M21.572,7.096l-0.343,7.218c-2.04-0.007-5.44-0.107-8.857-1.645
	c-2.426-1.089-4.783-0.671-6.599,0.069l-0.27-5.642H21.572z M3.61,34.173h0.075c-0.024,0.052-0.051,0.098-0.075,0.151V34.173z
	 M45.652,54.027H14.14c-5.293,0-9.676-3.931-10.41-9.025h1.686h16.246h34.404C55.331,50.096,50.948,54.027,45.652,54.027z"/>
</svg>
