<?xml version="1.0" encoding="utf-8"?>
<!-- Generator: Adobe Illustrator 16.0.0, SVG Export Plug-In . SVG Version: 6.00 Build 0)  -->
<!DOCTYPE svg PUBLIC "-//W3C//DTD SVG 1.1//EN" "http://www.w3.org/Graphics/SVG/1.1/DTD/svg11.dtd">
<svg version="1.1" id="Layer_1" xmlns="http://www.w3.org/2000/svg" xmlns:xlink="http://www.w3.org/1999/xlink" x="0px" y="0px"
	 width="100px" height="90.146px" viewBox="0 0 100 90.146" enable-background="new 0 0 100 90.146" xml:space="preserve">
<path fill="#FFFFFF" d="M100,51.615c0-11.25-9.15-20.401-20.4-20.401c-0.85,0-1.683,0.066-2.504,0.168
	c-2.08-6.428-8.521-16.782-21.109-15.007l-2.514,0.357l-0.066,2.535c-0.115,4.258,1.947,8.985,5.519,12.653
	c2.087,2.146,4.496,3.72,6.972,4.622c-2.539,2.312-4.475,5.26-5.592,8.584H42.119v3.011c0,0.288,0.038,0.573,0.051,0.86
	c-0.618-1.018-1.319-1.975-2.099-2.869l0.117-2.451c1.85-0.929,3.625-2.228,5.212-3.856c3.571-3.672,5.633-8.396,5.519-12.654
	l-0.065-2.535l-2.514-0.359c-2.699-0.377-5.097-0.176-7.248,0.399l1.024-21.52c0.036-0.822-0.26-1.624-0.828-2.222
	C40.721,0.335,39.933,0,39.111,0H6.017C5.194,0,4.407,0.335,3.84,0.93C3.271,1.528,2.973,2.33,3.011,3.152l2.376,49.905
	c-0.68,2.032-1.062,4.2-1.062,6.455c0,1.258,0.15,2.477,0.37,3.668H0l0.137,6.016c1.167,10.998,9.926,19.758,20.921,20.924
	l57.165,0.027c11.17-1.006,20.114-9.83,21.297-20.951l0.265-6.016H96.34C98.629,59.885,100,55.919,100,51.615z M57.613,61.339
	l5.564-5.563v7.182C61.191,62.677,59.325,62.115,57.613,61.339z M75.031,61.234c-1.782,0.842-3.748,1.428-5.838,1.723v-7.559
	L75.031,61.234z M73.447,51.146h10.428c-0.604,2.471-1.961,4.717-3.833,6.588L73.447,51.146z M63.236,27.725
	c-1.607-1.65-2.791-3.603-3.383-5.492c6.08,0.548,9.324,5.797,10.799,9.165c-0.02,0.002-0.036,0.002-0.055,0.002
	C68.229,31.399,65.477,30.024,63.236,27.725z M79.6,37.229c7.934,0,14.385,6.452,14.385,14.385c0,4.754-2.346,8.941-5.912,11.563
	h-5.073c4.47-3.823,7.255-9.149,7.255-15.043v-3.01h-23.4C69.229,40.46,74.018,37.229,79.6,37.229z M59.299,51.146l-6.79,6.793
	c-1.973-1.91-3.383-4.236-4.011-6.793H59.299z M49.377,63.179h-4.62c0.219-1.191,0.371-2.41,0.371-3.669
	c0-0.438-0.044-0.866-0.071-1.303C46.208,60.05,47.673,61.722,49.377,63.179z M11.894,63.179h-1.005
	c-0.323-1.177-0.548-2.39-0.548-3.669c0-7.93,6.454-14.385,14.385-14.385s14.385,6.455,14.385,14.385
	c0,1.279-0.228,2.492-0.549,3.669h-5.469h-18.05H11.894z M41.087,35.62c-2.238,2.303-4.992,3.679-7.361,3.679
	c-0.018,0-0.035,0-0.052-0.004c1.471-3.37,4.716-8.617,10.801-9.167C43.878,32.022,42.695,33.972,41.087,35.62z M27.229,39.281
	c-0.823-0.104-1.654-0.172-2.503-0.172c-5.288,0-10.095,2.041-13.725,5.35l-1.07-22.493c1.981-1.186,5.207-2.527,8.223-1.17
	c6.651,2.994,13.212,3.244,16.943,3.267l-0.18,3.737C30.843,31.038,28.372,35.746,27.229,39.281z M35.954,6.018l-0.572,12.03
	c-3.4-0.013-9.067-0.179-14.763-2.742c-4.044-1.815-7.972-1.118-10.999,0.114L9.172,6.018H35.954z M6.017,51.146h0.125
	c-0.041,0.086-0.086,0.164-0.125,0.252V51.146z M76.089,84.236H23.566c-8.823,0-16.127-6.551-17.35-15.041h2.809h27.076h57.34
	C92.218,77.685,84.913,84.236,76.089,84.236z"/>
</svg>
