<?xml version="1.0" encoding="utf-8"?>
<!-- Generator: Adobe Illustrator 16.0.0, SVG Export Plug-In . SVG Version: 6.00 Build 0)  -->
<!DOCTYPE svg PUBLIC "-//W3C//DTD SVG 1.1//EN" "http://www.w3.org/Graphics/SVG/1.1/DTD/svg11.dtd">
<svg version="1.1" id="Your_Icon" xmlns="http://www.w3.org/2000/svg" xmlns:xlink="http://www.w3.org/1999/xlink" x="0px" y="0px"
	 width="60.001px" height="59.75px" viewBox="0 0 60.001 59.75" enable-background="new 0 0 60.001 59.75" xml:space="preserve">
<g>
	<path fill="#FFFFFF" d="M58.991,27.791c-0.001-0.018-0.003-0.037-0.004-0.054c1.592-1.348,0.758-2.833-0.877-3.308
		c0.86-2.516-0.936-2.689-2.186-2.539c-0.021-0.021-0.042-0.042-0.064-0.062c-0.096-0.695-0.39-1.466-1.129-1.998
		c-0.384-0.133-0.773-0.237-1.158-0.282c-0.217-0.024-0.432-0.035-0.643-0.019c-0.21,0.01-0.413,0.056-0.61,0.112
		c-0.393,0.124-0.756,0.363-1.03,0.701c-0.144,0.164-0.259,0.353-0.369,0.545c-0.107,0.195-0.197,0.4-0.282,0.611l-0.06,0.151
		l-0.133-0.085c-0.335-0.214-0.788-0.379-1.155-0.203c-0.183,0.086-0.321,0.257-0.415,0.449c-0.029,0.055-0.047,0.114-0.069,0.173
		c-0.036,0.22-0.123,0.555-0.249,1.011c-0.302,1.098-3.05,3.703-5.082,5.514l-1.238,1.667c-0.841,1.729-2.005,3.891-2.489,5.313
		c0,0-0.224,0.564-2.475,4.436c0,0,2.1-8.632,3.308-9.752c0.254-0.235,0.479-0.434,0.689-0.617c0.001-0.001,0,0,0.677-1.056
		c0.551-0.862,1.746-1.966,2.892-2.813c0.774-0.673,1.573-1.479,2.574-2.535c0.94-0.995,0.904-1.199,1.214-1.428
		c0.085-0.192,0.393-0.386,0.589-0.501c0.212-0.128,0.471-0.152,0.705-0.116c0.184,0.028,0.354,0.092,0.52,0.172
		c0.062-0.178,0.126-0.355,0.207-0.528c0.105-0.214,0.217-0.429,0.364-0.624c0.278-0.396,0.679-0.743,1.159-0.919
		c0.456-0.167,0.952-0.156,1.4-0.046c0.229-1.525-1.039-2.53-1.772-2.974c-0.008-0.035-0.016-0.071-0.022-0.105
		c2.177-2.27-0.004-3.13-0.92-3.375c0.333-0.668,0.253-1.715-1.709-3.101c0.063-2.773-1.667-2.938-2.754-2.771
		c0.083-0.358,0.124-0.724,0.117-1.144c-0.022-1.278-3.104-2.363-3.919-2.331C42.11,3.376,41.556,4.13,41.18,4.743
		c-1.252-0.851-4.555-2.748-5.822-0.101c-0.13-0.108-0.313-0.202-0.542-0.28l-0.001,0.005c-0.457-0.081-0.93-0.109-1.372-0.023
		c-0.222,0.04-0.435,0.109-0.617,0.219c-0.093,0.056-0.175,0.122-0.25,0.193c-0.071,0.076-0.134,0.158-0.189,0.248
		c-0.205,0.362-0.245,0.814-0.204,1.255c0.042,0.445,0.163,0.886,0.292,1.324l0.097,0.325l-0.344-0.032
		c-0.152-0.015-0.333-0.014-0.495,0.005c-0.164,0.02-0.324,0.058-0.458,0.122c-0.279,0.12-0.42,0.349-0.417,0.663
		c0,0.084,0.006,0.144,0.021,0.24c0.01,0.098,0.03,0.171,0.049,0.244c0.017,0.073,0.05,0.147,0.081,0.216
		c0.034,0.068,0.074,0.129,0.12,0.184c0.094,0.106,0.215,0.181,0.361,0.215c0.072,0.02,0.15,0.027,0.229,0.031
		c0.086,0.002,0.149-0.004,0.272-0.009l0.009,0.383c-0.078,0.003-0.184,0.023-0.272,0.051c-0.091,0.028-0.177,0.067-0.26,0.113
		c-0.159,0.096-0.289,0.232-0.374,0.399c-0.041,0.084-0.071,0.175-0.094,0.269c-0.023,0.096-0.037,0.202-0.043,0.3
		c-0.015,0.206-0.011,0.417,0.01,0.625c0.023,0.208,0.062,0.415,0.127,0.607c0.033,0.096,0.072,0.187,0.121,0.267
		c0.048,0.088,0.101,0.132,0.192,0.211c0.084,0.072,0.157,0.12,0.245,0.178c0.088,0.056,0.18,0.107,0.276,0.155
		c0.185,0.092,0.391,0.18,0.578,0.229l0.396,0.106l-0.381,0.135c-0.211,0.076-0.427,0.201-0.581,0.362
		c-0.156,0.164-0.244,0.375-0.223,0.598c0.018,0.223,0.124,0.444,0.26,0.641c0.137,0.198,0.304,0.38,0.483,0.551l0.029,0.028
		l-0.004,0.042c-0.036,0.354,0.015,0.733,0.127,1.082c0.054,0.177,0.127,0.348,0.215,0.51c0.047,0.079,0.084,0.165,0.141,0.239
		l0.161,0.227c0.124,0.138,0.24,0.285,0.385,0.403c0.07,0.06,0.135,0.13,0.213,0.182l0.225,0.163c0.151,0.11,0.322,0.19,0.484,0.287
		c0.101,0.048,0.205,0.092,0.309,0.138c0-0.003,0.002-0.009,0.002-0.009s0.036,0.016,0.09,0.051c0.038,0.017,0.076,0.033,0.112,0.05
		l-0.008,0.021c0.379,0.282,1.193,1.124,1.347,3.222c0.202,2.751-0.5,6.63-0.877,7.869c-0.377,1.241-1.959,7.064-1.778,5.916
		c0.182-1.15,0.222-5.435-0.265-8.292c-0.459-2.695,1.175-8.169,1.362-8.78c-0.107-0.043-0.214-0.087-0.32-0.133
		c-0.166-0.093-0.341-0.17-0.498-0.277l-0.236-0.161c-0.081-0.051-0.146-0.12-0.222-0.18c-0.151-0.118-0.275-0.265-0.407-0.404
		l-0.172-0.229c-0.059-0.077-0.101-0.164-0.151-0.245c-0.096-0.166-0.176-0.342-0.238-0.525c-0.066-0.181-0.106-0.37-0.14-0.561
		c-0.023-0.178-0.035-0.355-0.023-0.541c-0.179-0.163-0.351-0.336-0.498-0.536c-0.154-0.208-0.286-0.449-0.319-0.728
		c-0.039-0.279,0.074-0.575,0.261-0.775c0.092-0.102,0.199-0.187,0.312-0.26c0.022-0.014,0.043-0.024,0.065-0.038
		c-0.114-0.042-0.223-0.089-0.333-0.14c-0.102-0.048-0.202-0.101-0.301-0.159c-0.095-0.057-0.207-0.131-0.289-0.2
		c-0.076-0.061-0.193-0.162-0.25-0.267c-0.067-0.105-0.118-0.214-0.158-0.324c-0.079-0.22-0.127-0.444-0.158-0.67
		c-0.029-0.226-0.04-0.453-0.029-0.684c0.007-0.12,0.018-0.231,0.042-0.349c0.025-0.119,0.062-0.237,0.114-0.351
		c0.091-0.194,0.237-0.363,0.409-0.492c-0.138-0.059-0.269-0.145-0.371-0.256c-0.076-0.083-0.14-0.173-0.189-0.268
		c-0.049-0.097-0.093-0.191-0.122-0.294c-0.032-0.105-0.058-0.209-0.069-0.294c-0.018-0.083-0.034-0.206-0.035-0.306
		c-0.002-0.211,0.035-0.446,0.16-0.649c0.12-0.206,0.313-0.354,0.511-0.445c0.199-0.09,0.404-0.131,0.603-0.154
		c0.096-0.009,0.189-0.015,0.284-0.015c-0.092-0.365-0.161-0.736-0.182-1.12c-0.02-0.484,0.03-1.018,0.328-1.458
		c0.076-0.107,0.164-0.204,0.261-0.291c0.101-0.082,0.209-0.154,0.324-0.21c0.23-0.113,0.476-0.169,0.719-0.193
		c0.306-0.023,0.608,0.002,0.904,0.059c-0.066-0.815-0.695-1.92-3.712-1.65c-0.906-0.413-1.575-1.361-3.108,0.201
		C27.023,3.226,26.793,3.67,26.7,4.053c-0.009,0.004-0.018,0.009-0.027,0.013c-2.279-0.556-2.849,0.907-2.954,2.092
		c-0.002,0.002-0.002,0.003-0.004,0.004c-1.122,0.011-2.308,0.401-0.983,2.345c-0.101,0.206-0.176,0.45-0.213,0.746
		C22,8.21,20.964,7.074,18.981,7.536c-0.148-0.019-0.296-0.031-0.443-0.033c-0.673-0.647-1.832-1.215-2.903,0.894
		c-0.24,0.146-0.468,0.303-0.684,0.463c-0.688-0.119-1.479,0.08-1.902,1.339c0.282,0.216,0.524,0.497,0.688,0.832
		c0.206,0.432,0.231,0.944,0.118,1.39c-0.051,0.226-0.136,0.438-0.231,0.643c-0.064,0.131-0.141,0.252-0.215,0.376
		c0.197,0.079,0.389,0.165,0.577,0.261c0.258,0.134,0.508,0.285,0.743,0.459c0.467,0.344,0.891,0.788,1.12,1.34
		c0.055,0.137,0.104,0.278,0.128,0.425c0.034,0.145,0.042,0.294,0.044,0.44c0.001,0.148-0.017,0.293-0.039,0.438
		c-0.033,0.142-0.059,0.286-0.112,0.419c-0.044,0.139-0.102,0.271-0.165,0.399c-0.056,0.132-0.137,0.251-0.204,0.377
		c-0.15,0.243-0.319,0.471-0.499,0.692l-0.035-0.028c0.164-0.229,0.318-0.464,0.451-0.71c0.059-0.127,0.131-0.247,0.177-0.379
		c0.053-0.128,0.102-0.258,0.136-0.393c0.043-0.131,0.059-0.269,0.083-0.403c0.013-0.135,0.022-0.271,0.012-0.406
		c-0.01-0.135-0.025-0.27-0.062-0.398c-0.031-0.13-0.079-0.256-0.135-0.377c-0.228-0.487-0.63-0.877-1.082-1.18
		c-0.226-0.152-0.467-0.284-0.716-0.4c-0.246-0.115-0.51-0.215-0.762-0.287l-0.239-0.068l0.127-0.226
		c0.101-0.18,0.194-0.361,0.272-0.548c0.07-0.188,0.142-0.375,0.176-0.567c0.039-0.19,0.063-0.381,0.052-0.57
		c-0.01-0.188-0.047-0.372-0.11-0.551c-0.13-0.358-0.4-0.661-0.708-0.927c-0.243-0.2-0.521-0.367-0.81-0.516
		c-0.726-0.242-1.163,0.241-1.423,0.86C10.171,9.761,9.432,9.263,7.098,9.9c-1.343,0.367-1.96,1.252-2.214,2.215
		c-0.038,0.025-0.075,0.049-0.112,0.073c-1.458-0.68-3.859-0.05-4.189,1.827c-0.221,1.253,0.494,2.131,1.233,2.687
		c-0.233,0.201-0.483,0.424-0.752,0.678c-2.234,2.096-0.454,3.646-0.059,4.378c0.18,0.333,0.609,0.326,1.024,0.22
		c-0.954,2.372,2.474,5.942,3.804,5.553c0.589-0.172,1.118-0.637,1.55-1.151c0.014,0.001,0.029,0.002,0.042,0.003
		c0.96,1.278,2.374,1.451,3.396,0.604c0.71-0.589,0.941-1.354,1.005-1.922c0.332-0.251,0.515-0.438,0.515-0.438
		c8.539,10.05,8.654,16.989,9.119,19.025c0.465,2.037,0.395,14.749,0.395,14.749l3.465,0.063l11.856-0.247
		c0,0,1.235-4.006,3.421-12.479c2.187-8.473,8.947-9.808,8.947-9.808c0.284,1.646,2.839,1.535,2.839,1.535
		c1.828-0.309,1.875-0.992,2.341-1.819c2.451,0.407,2.736-1.793,2.502-2.623C61.532,31.38,59.73,28.667,58.991,27.791z
		 M44.958,20.066c0,0-1.281,2.807-2.472,3.474C41.294,24.207,42.429,21.266,44.958,20.066z M43.035,19.495
		c0,0-2.921,5.493-2.965,3.911C40.026,21.825,43.035,19.495,43.035,19.495z M37.713,18.746c0,0,0.617,0.309,0.369,0.802
		c-0.246,0.492-0.026,3.544-0.394,3.003C37.32,22.009,37.713,18.746,37.713,18.746z M12.815,20.261L12.23,18.99l0.947,0.512
		l0.382,1.602L12.815,20.261z M17.684,14.108l0.216,2.271l-0.841-0.798L17.684,14.108z M14.905,21.195
		c-1.172-1,0.032-2.503,0.032-2.503l2.428,0.896l2.796,10.444C20.16,30.033,16.077,22.195,14.905,21.195z M27.688,16.018
		l0.744,1.613l-1.323-1.346L27.688,16.018z M27.974,33.424c-0.239,3.039-0.315,5.352-0.338,6.45
		c-0.006,0.426-0.011,0.702-0.011,0.702s0-0.248,0.011-0.702c0.016-1.327,0.023-4.108-0.181-4.553
		c-0.271-0.586-3.889-6.385-5.41-13.031c0,0-0.322-1.985,0.31-2.157s3.13-0.376,3.71,1.253
		C26.645,23.016,28.311,29.124,27.974,33.424z M29.013,22.754l-0.901-1.955c-1.765-2.031-1.531-3.324-1.531-3.324
		s1.728,1.693,2.097,2.234C29.045,20.251,29.013,22.754,29.013,22.754z M29.855,17.981c0,0,0.146-0.541,0.166-2.09l0.641,0.411
		L29.855,17.981z M31.63,22.261c0.014,1.059-0.541-1.173-0.457-2.279c0.083-1.105,0.617-1.232,1.54-1.539
		C32.713,18.443,31.616,21.2,31.63,22.261z M52.377,29.621c0.995-0.506,1.513-0.783,1.832-0.788c0.47-0.007-0.856,0.959-2.228,1.59
		c-1.371,0.631-1.39,0.076-1.39,0.076C51.315,30.156,51.9,29.862,52.377,29.621z M49.402,27.938l1.185-0.546
		c0,0,0.027,0.58-0.597,1.822c0,0-1.016,0.343-0.969-0.328S49.402,27.938,49.402,27.938z M47.916,26.489c0,0-0.656,2.435-1.926,3.02
		C44.719,30.095,47.916,26.489,47.916,26.489z M44.879,32.629c0.958-1.391,3.223-2.907,3.223-2.907
		C47.204,32.149,43.919,34.018,44.879,32.629z M48.054,34.958c-0.963,0.8,0.287-1.081,0.835-1.451
		c0.548-0.372,3.729-1.955,4.127-0.834C53.016,32.673,49.014,34.16,48.054,34.958z M53.953,31.107l-1.084-0.382l0.749-0.345
		l3.005,0.094L53.953,31.107z"/>
</g>
</svg>
