<?xml version="1.0" encoding="utf-8"?>
<!-- Generator: Adobe Illustrator 16.0.0, SVG Export Plug-In . SVG Version: 6.00 Build 0)  -->
<!DOCTYPE svg PUBLIC "-//W3C//DTD SVG 1.1//EN" "http://www.w3.org/Graphics/SVG/1.1/DTD/svg11.dtd">
<svg version="1.1" id="Layer_1" xmlns="http://www.w3.org/2000/svg" xmlns:xlink="http://www.w3.org/1999/xlink" x="0px" y="0px"
	 width="60px" height="60px" viewBox="0 0 60 60" enable-background="new 0 0 60 60" xml:space="preserve">
<g id="Captions">
</g>
<g id="Your_Icon">
	<g>
		<path fill="#FFFFFF" d="M44.685,21.347c-0.108,0-0.215,0.004-0.323,0.008c-0.883-6.176-5.486-11.152-11.467-12.586
			c-0.854,1.006-2.125,1.647-3.548,1.647c-1.423,0-2.695-0.641-3.548-1.647c-6.042,1.448-10.675,6.512-11.492,12.777
			c-4.217,0.258-7.557,3.758-7.557,8.04c0,4.45,3.607,8.058,8.058,8.058c2.058,0,3.935-0.772,5.36-2.044
			c2.549,1.941,5.728,3.095,9.18,3.095c3.584,0,6.876-1.247,9.472-3.325c1.495,1.514,3.57,2.455,5.865,2.455
			c4.55,0,8.239-3.689,8.239-8.239C52.925,25.036,49.235,21.347,44.685,21.347z"/>
		<circle fill="#FFFFFF" cx="29.402" cy="4.65" r="4.65"/>
		<path fill="#FFFFFF" d="M38.952,39.221c-2.597,2.079-5.888,3.326-9.473,3.326c-3.451,0-6.631-1.155-9.18-3.095
			c-1.423,1.27-3.301,2.043-5.36,2.043c-1.811,0-3.483-0.693-4.828-1.701l6.86,19.706h25.304l7.354-19.473
			c-1.354,0.976-3.015,1.602-4.813,1.602C42.521,41.629,40.445,40.736,38.952,39.221z"/>
	</g>
</g>
</svg>
