<?xml version="1.0" encoding="utf-8"?>
<!-- Generator: Adobe Illustrator 16.0.0, SVG Export Plug-In . SVG Version: 6.00 Build 0)  -->
<!DOCTYPE svg PUBLIC "-//W3C//DTD SVG 1.1//EN" "http://www.w3.org/Graphics/SVG/1.1/DTD/svg11.dtd">
<svg version="1.1" id="Layer_1" xmlns="http://www.w3.org/2000/svg" xmlns:xlink="http://www.w3.org/1999/xlink" x="0px" y="0px"
	 width="60.168px" height="60px" viewBox="0 0 60.168 60" enable-background="new 0 0 60.168 60" xml:space="preserve">
<g>
	<g>
		<path fill="#FFFFFF" d="M30.084,57.35c-0.834,0-1.667-0.318-2.304-0.955L4.759,33.373c-6.345-6.348-6.345-16.678,0-23.028
			C7.833,7.272,11.918,5.58,16.268,5.58c4.349,0,8.438,1.694,11.515,4.769l2.301,2.298l2.3-2.3
			c3.075-3.073,7.159-4.766,11.509-4.766c4.35,0,8.439,1.694,11.516,4.77c6.348,6.35,6.344,16.68,0,23.023L32.387,56.395
			C31.75,57.031,30.917,57.35,30.084,57.35L30.084,57.35z M16.268,12.096c-2.609,0-5.06,1.015-6.901,2.857
			c-3.806,3.807-3.806,10.003,0,13.812l20.718,20.717l20.718-20.717c3.805-3.806,3.805-10.001,0-13.81
			c-3.691-3.688-10.126-3.688-13.81-0.002l-4.602,4.604c-1.273,1.273-3.334,1.271-4.607,0.001l-4.607-4.601
			C21.33,13.112,18.876,12.096,16.268,12.096L16.268,12.096z"/>
	</g>
	<g>
		<path fill="#FFFFFF" d="M30.086,38.143L30.086,38.143c-0.865,0-1.692-0.344-2.304-0.955l-6.51-6.514
			c-1.272-1.272-1.272-3.334,0-4.607c1.272-1.272,3.335-1.272,4.607,0l4.207,4.21l10.717-10.72c1.272-1.273,3.334-1.273,4.608,0
			c1.273,1.271,1.273,3.334,0,4.607L32.39,37.188C31.779,37.799,30.952,38.143,30.086,38.143L30.086,38.143z"/>
	</g>
</g>
</svg>
