<?xml version="1.0" encoding="utf-8"?>
<!-- Generator: Adobe Illustrator 16.0.0, SVG Export Plug-In . SVG Version: 6.00 Build 0)  -->
<!DOCTYPE svg PUBLIC "-//W3C//DTD SVG 1.1//EN" "http://www.w3.org/Graphics/SVG/1.1/DTD/svg11.dtd">
<svg version="1.1" id="Layer_1" xmlns="http://www.w3.org/2000/svg" xmlns:xlink="http://www.w3.org/1999/xlink" x="0px" y="0px"
	 width="100px" height="100px" viewBox="0 0 100 100" enable-background="new 0 0 100 100" xml:space="preserve">
<path fill="#FFFFFF" d="M16.373,59.967c-0.04,0-0.079-0.002-0.118-0.005C5.009,59.211,0.322,47.93,0.128,47.45
	c-0.248-0.613-0.132-1.314,0.299-1.814c2.212-2.567,5.709-6.656,6.715-7.902C9.116,25.096,20.58,24.909,26.774,24.807
	c1.239-0.02,2.309-0.038,3.132-0.129c2.194-0.246,2.848-0.816,4.15-1.952c1.486-1.296,3.52-3.071,8.438-5
	c3.365-1.318,6.01-1.236,7.858,0.247c2.934,2.354,2.293,7.083,2.21,7.614c-0.066,0.429-0.289,0.816-0.623,1.092L37.941,38.201
	c-0.752,0.619-1.866,0.512-2.485-0.242c-0.619-0.752-0.511-1.864,0.242-2.483l13.434-11.058c0.058-1.106-0.057-2.947-0.992-3.693
	c-0.769-0.614-2.317-0.511-4.358,0.29c-4.348,1.704-6.044,3.183-7.406,4.373c-1.496,1.305-2.787,2.432-6.078,2.799
	c-0.99,0.111-2.137,0.13-3.467,0.153c-8.156,0.133-15.009,1.003-16.26,10.345c-0.038,0.285-0.146,0.558-0.313,0.791
	c-0.539,0.754-4.548,5.433-6.406,7.593c1.225,2.346,4.97,8.328,11.692,9.275c1.776-2.281,6.991-7.985,15.978-9.91
	c9.482-2.032,24.676-9.264,25.082-20.023c0.496-13.081-1.799-19.803-3.586-20.398c-0.236-0.079-0.451-0.205-0.634-0.374
	c-0.426-0.378-1.824-1.323-3.113-1.055c-1.353,0.282-2.333,1.862-2.92,3.138c-0.199,0.434-0.567,0.771-1.019,0.928
	c-0.175,0.062-0.356,0.094-0.539,0.099c-0.538,0.147-3.941,1.305-3.134,6.513c0.15,0.963-0.509,1.866-1.472,2.015
	c-0.955,0.149-1.867-0.51-2.016-1.474c-0.835-5.377,1.685-8.106,3.259-9.255c0.065-0.047,1.03-0.742,2.109-1.105
	c1.306-2.458,3-3.91,5.045-4.324c2.775-0.558,5.097,1.03,5.904,1.679c5.8,2.513,5.884,17.375,5.644,23.744
	c-0.485,12.849-16.934,21.001-27.872,23.343c-9.327,2-13.928,8.557-14.422,9.297C17.513,59.673,16.96,59.967,16.373,59.967z"/>
</svg>
