<?xml version="1.0" encoding="utf-8"?>
<!-- Generator: Adobe Illustrator 16.0.0, SVG Export Plug-In . SVG Version: 6.00 Build 0)  -->
<!DOCTYPE svg PUBLIC "-//W3C//DTD SVG 1.1//EN" "http://www.w3.org/Graphics/SVG/1.1/DTD/svg11.dtd">
<svg version="1.1" id="Layer_1" xmlns="http://www.w3.org/2000/svg" xmlns:xlink="http://www.w3.org/1999/xlink" x="0px" y="0px"
	 width="59.907px" height="60.021px" viewBox="0 0 59.907 60.021" enable-background="new 0 0 59.907 60.021" xml:space="preserve">
<path fill="#FFFFFF" d="M30.853,13.9c-0.126-0.007-0.254-0.011-0.381-0.011s-0.253,0.004-0.38,0.011
	C19.505,14.118,11,23.333,11,34.696c0,1.507,1.223,2.729,2.73,2.729c1.507,0,2.729-1.223,2.729-2.729
	c0-4.919,1.597-9.432,4.263-12.99c-1.765,3.531-2.941,8.025-3.261,12.99h26.023c-0.319-4.965-1.496-9.459-3.262-12.99
	c2.667,3.558,4.263,8.071,4.263,12.99c0,1.507,1.222,2.729,2.729,2.729c1.507,0,2.73-1.223,2.73-2.729
	C49.945,23.333,41.439,14.118,30.853,13.9z M43.533,35.637H17.411c-0.025,0.592-0.042,1.19-0.042,1.793
	c0,8.652,2.599,16.209,6.469,20.299c-1.239,0.622-1.984,1.42-1.984,2.292h8.144l0.475-18.077l0.476,18.077h8.143
	c0-0.872-0.744-1.67-1.983-2.292c3.87-4.09,6.468-11.647,6.468-20.299C43.574,36.826,43.558,36.229,43.533,35.637z M30.472,12.989
	c3.5,0,6.338-2.837,6.338-6.338c0-3.5-2.838-6.338-6.338-6.338s-6.339,2.838-6.339,6.338C24.133,10.152,26.972,12.989,30.472,12.989
	z"/>
</svg>
