<?xml version="1.0" encoding="utf-8"?>
<!-- Generator: Adobe Illustrator 16.0.0, SVG Export Plug-In . SVG Version: 6.00 Build 0)  -->
<!DOCTYPE svg PUBLIC "-//W3C//DTD SVG 1.1//EN" "http://www.w3.org/Graphics/SVG/1.1/DTD/svg11.dtd">
<svg version="1.1" id="Layer_1" xmlns="http://www.w3.org/2000/svg" xmlns:xlink="http://www.w3.org/1999/xlink" x="0px" y="0px"
	 width="48px" height="49.621px" viewBox="0 0 48 49.621" enable-background="new 0 0 48 49.621" xml:space="preserve">
<g>
	<path fill="#FFFFFF" d="M13.06,10.64c0.182,0.09,0.387,0.192,0.602,0.301l1.357,0.666c-0.21,0.291-0.369,0.565-1.009,1.374
		c-1.264,1.596-3.591,4.536-3.457,6.582c0.61-0.12,2.071-0.998,3.071-1.601c1.857-1.119,3.612-2.175,4.902-2.175
		c0.005,0,0.008,0,0.013,0c1.962,0.011,2.802,2.486,3.542,4.67c0.23,0.678,0.554,1.633,0.822,2.088
		c0.171-0.594,0.265-1.813,0.327-2.602c0.095-1.218,0.185-2.371,0.459-3.131c0.681-1.879,4.444-1.008,9.686,0.429
		c0.414,0.113,0.801,0.22,1.146,0.311c-0.788-1.014-2.214-2.557-3.092-3.508c-1.007-1.089-1.813-2.106-2.173-2.62
		c0.302-0.197,0.638-0.404,0.911-0.573c1.536-0.944,2.415-1.514,2.636-2.244c0.089-0.293,0.045-0.607-0.118-0.861
		c-0.298-0.463-0.86-0.537-1.046-0.562c-1.81-0.24-7.596,0.843-9.911,1.578c0.241-2.84,1.166-4.804-0.486-7.097
		c-1.155-1.602-2.488,0.059-1.666,1.2c1.143,1.585,0.39,2.935,0.075,6.074c-0.104-0.045-0.217-0.095-0.337-0.148
		c-0.702-0.311-1.661-0.736-3.171-1.195c-0.958-0.292-1.857-0.495-2.67-0.603c-2.102-0.278-3.049,0.152-3.217,0.241l-0.249,0.132
		l-0.129,0.25C9.752,7.861,9.731,8.146,9.82,8.417C10.038,9.086,10.835,9.533,13.06,10.64z"/>
	<path fill="#FFFFFF" d="M31.925,12.374c0.18,0.222,0.372,0.448,0.58,0.674c3.561,3.851,4.394,4.932,3.918,5.771
		c-0.101,0.178-0.415,0.578-1.167,0.422c-0.532-0.11-1.338-0.331-2.269-0.586c-1.513-0.415-3.394-0.93-5.01-1.223
		c-2.292-0.415-2.833-0.151-2.918-0.094c-0.201,0.582-0.285,1.667-0.367,2.718c-0.166,2.145-0.308,3.484-1.085,3.986
		c-0.187,0.121-0.396,0.183-0.614,0.183c-0.14,0-0.283-0.025-0.424-0.077c-0.894-0.322-1.328-1.601-1.876-3.22
		c-0.525-1.548-1.246-3.669-2.161-3.674c-0.002,0-0.004,0-0.006,0c-0.881,0-2.691,1.09-4.145,1.966
		c-2.3,1.384-3.646,2.146-4.586,1.69c-0.22-0.107-0.603-0.382-0.684-1.022c-0.321-2.556,2.023-5.634,3.562-7.583
		C6.785,14.88,2.779,19.812,1.914,25.576c-0.577,3.852,0.414,8.89,2.042,11.507c1.94,3.115,5.191,5.561,10.018,7.246
		c2.311,0.806,5.442,1.691,8.386,2.078c11.67,1.533,20.578-5.42,21.878-15.219C45.275,23.37,40.146,15.845,31.925,12.374z
		 M41.2,30.771c-0.194,0.973-0.659,2.916-1.592,4.987c-1.589,3.532-5.079,5.209-5.783,5.117l0,0
		c-0.061-0.009-0.118-0.023-0.172-0.048c-0.179-0.081-0.299-0.245-0.32-0.438c-0.038-0.355,0.184-0.52,0.72-0.917
		c0.934-0.69,2.877-2.129,3.939-4.488c0.874-1.943,1.423-3.942,1.788-5.264c0.428-1.556,0.558-2.024,1.132-1.948l0.076,0.01
		l0.081,0.034C41.335,27.935,41.733,28.114,41.2,30.771z"/>
</g>
</svg>
